<svg version="1.1" focusable="false" viewBox="0.0 0.0 544.8871391076116 295.87664041994753" fill="none" stroke="none" stroke-linecap="square" stroke-miterlimit="10" xmlns:xlink="http://www.w3.org/1999/xlink" xmlns="http://www.w3.org/2000/svg"><clipPath id="p.0"><path d="m0 0l544.88715 0l0 295.87665l-544.88715 0l0 -295.87665z" clip-rule="nonzero"/></clipPath><g clip-path="url(#p.0)"><path fill="#000000" fill-opacity="0.0" d="m0 0l544.88715 0l0 295.87665l-544.88715 0z" fill-rule="evenodd"/><path fill="#000000" fill-opacity="0.0" d="m0.0131233595 0l558.6772 0l0 294.99213l-558.6772 0z" fill-rule="evenodd"/><path fill="#ffffff" d="m18.247498 124.2l0 -83.765625l18.25 0l0 67.5625l31.921875 0l0 16.203125l-50.171875 0zm87.00932 1.4375q-6.96875 0 -12.4375 -2.28125q-5.453125 -2.28125 -9.234375 -6.59375q-3.765625 -4.328125 -5.8125 -10.4375q-2.046875 -6.125 -2.046875 -13.6875q0 -7.5625 2.046875 -13.671875q2.046875 -6.125 5.8125 -10.375q3.78125 -4.265625 9.234375 -6.546875q5.46875 -2.28125 12.4375 -2.28125q6.953125 0 12.40625 2.28125q5.46875 2.28125 9.25 6.546875q3.78125 4.25 5.8125 10.375q2.046875 6.109375 2.046875 13.671875q0 7.5625 -2.046875 13.6875q-2.03125 6.109375 -5.8125 10.4375q-3.78125 4.3125 -9.25 6.59375q-5.453125 2.28125 -12.40625 2.28125zm0 -14.03125q5.28125 0 8.15625 -3.234375q2.875 -3.25 2.875 -9.25l0 -12.84375q0 -6.0 -2.875 -9.234375q-2.875 -3.25 -8.15625 -3.25q-5.28125 0 -8.171875 3.25q-2.875 3.234375 -2.875 9.234375l0 12.84375q0 6.0 2.875 9.25q2.890625 3.234375 8.171875 3.234375zm67.55493 14.03125q-7.078125 0 -12.609375 -2.328125q-5.515625 -2.34375 -9.234375 -6.609375q-3.71875 -4.265625 -5.640625 -10.375q-1.921875 -6.125 -1.921875 -13.6875q0 -7.5625 1.921875 -13.609375q1.921875 -6.0625 5.640625 -10.375q3.71875 -4.328125 9.234375 -6.609375q5.53125 -2.28125 12.609375 -2.28125q9.59375 0 16.015625 4.328125q6.421875 4.3125 9.1875 12.109375l-14.40625 6.234375q-0.828125 -3.59375 -3.46875 -6.109375q-2.640625 -2.53125 -7.328125 -2.53125q-5.40625 0 -8.171875 3.546875q-2.75 3.546875 -2.75 9.546875l0 11.75q0 6.0 2.75 9.484375q2.765625 3.484375 8.171875 3.484375q4.796875 0 7.609375 -2.578125q2.828125 -2.59375 4.15625 -6.78125l13.796875 6.0q-3.125 9.0 -9.671875 13.203125q-6.53125 4.1875 -15.890625 4.1875zm83.16495 -1.4375q-4.796875 0 -7.984375 -3.0q-3.171875 -3.0 -4.015625 -8.046875l-0.71875 0q-1.4375 6.125 -6.359375 9.3125q-4.921875 3.171875 -12.125 3.171875q-9.484375 0 -14.53125 -5.03125q-5.03125 -5.046875 -5.03125 -13.328125q0 -9.953125 7.25 -14.8125q7.265625 -4.859375 19.75 -4.859375l9.96875 0l0 -3.96875q0 -4.5625 -2.40625 -7.25q-2.40625 -2.703125 -8.046875 -2.703125q-5.28125 0 -8.40625 2.28125q-3.109375 2.28125 -5.140625 5.15625l-10.5625 -9.359375q3.828125 -5.640625 9.640625 -8.8125q5.828125 -3.1875 15.796875 -3.1875q13.4375 0 20.15625 5.875q6.7187347 5.875 6.7187347 17.15625l0 27.609375l5.890625 0l0 13.796875l-9.843735 0zm-24.609375 -10.921875q4.453125 0 7.625 -1.921875q3.1875 -1.921875 3.1875 -6.234375l0 -7.4375l-8.640625 0q-10.453125 0 -10.453125 7.078125l0 1.796875q0 3.484375 2.15625 5.109375q2.171875 1.609375 6.125 1.609375zm63.967453 10.921875q-9.125 0 -13.390625 -4.4375q-4.25 -4.4375 -4.25 -12.84375l0 -71.515625l17.765625 0l0 75.0l7.90625 0l0 13.796875l-8.03125 0zm72.84436 -13.3125l-0.609375 0q-0.953125 6.359375 -6.484375 10.5625q-5.515625 4.1875 -15.0 4.1875q-7.1875 0 -13.4375 -2.75q-6.234375 -2.765625 -10.921875 -8.15625q-4.671875 -5.40625 -7.3125 -13.4375q-2.640625 -8.046875 -2.640625 -18.609375q0 -10.5625 2.75 -18.71875q2.765625 -8.171875 7.75 -13.6875q4.984375 -5.515625 11.9375 -8.390625q6.96875 -2.890625 15.484375 -2.890625q11.28125 0 19.4375 4.859375q8.15625 4.859375 12.84375 14.578125l-14.890625 8.53125q-1.90625 -4.921875 -6.0 -8.34375q-4.078125 -3.421875 -11.390625 -3.421875q-8.515625 0 -13.5625 4.921875q-5.046875 4.921875 -5.046875 15.484375l0 13.4375q0 10.4375 5.046875 15.421875q5.046875 4.96875 13.5625 4.96875q3.359375 0 6.359375 -0.765625q3.0 -0.78125 5.28125 -2.40625q2.28125 -1.625 3.53125 -3.90625q1.265625 -2.28125 1.265625 -5.390625l0 -4.203125l-15.59375 0l0 -15.25l33.0 0l0 46.6875l-15.359375 0l0 -13.3125zm57.717407 14.75q-6.96875 0 -12.4375 -2.28125q-5.453125 -2.28125 -9.234375 -6.59375q-3.765625 -4.328125 -5.8125 -10.4375q-2.046875 -6.125 -2.046875 -13.6875q0 -7.5625 2.046875 -13.671875q2.046875 -6.125 5.8125 -10.375q3.78125 -4.265625 9.234375 -6.546875q5.46875 -2.28125 12.4375 -2.28125q6.953125 0 12.40625 2.28125q5.46875 2.28125 9.25 6.546875q3.78125 4.25 5.8125 10.375q2.046875 6.109375 2.046875 13.671875q0 7.5625 -2.046875 13.6875q-2.03125 6.109375 -5.8125 10.4375q-3.78125 4.3125 -9.25 6.59375q-5.453125 2.28125 -12.40625 2.28125zm0 -14.03125q5.28125 0 8.15625 -3.234375q2.875 -3.25 2.875 -9.25l0 -12.84375q0 -6.0 -2.875 -9.234375q-2.875 -3.25 -8.15625 -3.25q-5.28125 0 -8.171875 3.25q-2.875 3.234375 -2.875 9.234375l0 12.84375q0 6.0 2.875 9.25q2.890625 3.234375 8.171875 3.234375zm54.59491 12.59375l-20.640625 -63.0l17.515625 0l7.8125 25.4375l5.875 22.796875l0.953125 0l5.890625 -22.796875l7.5625 -25.4375l16.796875 0l-20.640625 63.0l-21.125 0z" fill-rule="nonzero"/><path fill="#ffffff" d="m34.575623 284.7625q-4.921875 0 -8.28125 -3.125q-3.359375 -3.125 -3.359375 -9.0l0 -24.359375q0 -5.28125 -3.3125 -7.96875q-3.296875 -2.703125 -8.328124 -2.703125l0 -13.5625q5.031249 0 8.328124 -2.703125q3.3125 -2.703125 3.3125 -7.984375l0 -24.234375q0 -5.875 3.359375 -9.0q3.359375 -3.125 8.28125 -3.125l13.078125 0l0 12.484375l-8.28125 0l0 25.796875q0 2.875 -1.03125 5.46875q-1.015625 2.578125 -2.703125 4.625q-1.671875 2.03125 -3.953125 3.40625q-2.265625 1.375 -4.796875 1.859375l0 0.484375q2.53125 0.484375 4.796875 1.859375q2.28125 1.375 3.953125 3.421875q1.6875 2.03125 2.703125 4.625q1.03125 2.578125 1.03125 5.453125l0 25.796875l8.28125 0l0 12.484375l-13.078125 0zm28.311829 -100.328125l31.5625 0q8.28125 0 15.125 2.640625q6.84375 2.640625 11.640625 7.859375q4.796875 5.21875 7.4375 13.09375q2.640625 7.859375 2.640625 18.296875q0 10.4375 -2.640625 18.296875q-2.640625 7.859375 -7.4375 13.078125q-4.796875 5.21875 -11.640625 7.859375q-6.84375 2.640625 -15.125 2.640625l-31.5625 0l0 -83.765625zm31.5625 67.5625q8.15625 0 12.828125 -4.546875q4.6875 -4.5625 4.6875 -14.65625l0 -12.953125q0 -10.078125 -4.6875 -14.640625q-4.671875 -4.5625 -12.828125 -4.5625l-13.3125 0l0 51.359375l13.3125 0zm51.1243 16.203125l0 -63.0l17.765625 0l0 13.6875l0.59375 0q0.484375 -2.640625 1.671875 -5.09375q1.203125 -2.46875 3.1875 -4.390625q1.984375 -1.921875 4.734375 -3.0625q2.765625 -1.140625 6.484375 -1.140625l3.125 0l0 16.5625l-4.4375 0q-7.8125 0 -11.59375 2.046875q-3.765625 2.03125 -3.765625 7.546875l0 36.84375l-17.765625 0zm85.683075 -10.5625l-0.609375 0q-0.828125 2.40625 -2.21875 4.5625q-1.375 2.15625 -3.546875 3.84375q-2.15625 1.671875 -5.09375 2.625q-2.9375 0.96875 -6.78125 0.96875q-9.71875 0 -14.703125 -6.421875q-4.96875 -6.421875 -4.96875 -18.421875l0 -39.59375l17.75 0l0 38.046875q0 5.75 2.046875 8.875q2.046875 3.125 6.953125 3.125q2.046875 0 4.078125 -0.59375q2.046875 -0.609375 3.609375 -1.75q1.5625 -1.140625 2.515625 -2.8125q0.96875 -1.6875 0.96875 -3.96875l0 -40.921875l17.75 0l0 63.0l-17.75 0l0 -10.5625zm34.316803 -52.4375l17.765625 0l0 10.5625l0.59375 0q1.3125 -5.28125 6.046875 -8.640625q4.75 -3.359375 10.875 -3.359375q12.0 0 18.109375 8.40625q6.125 8.390625 6.125 24.46875q0 16.078125 -6.125 24.546875q-6.109375 8.453125 -18.109375 8.453125q-3.125 0 -5.890625 -0.90625q-2.75 -0.890625 -4.96875 -2.5q-2.21875 -1.625 -3.78125 -3.84375q-1.5625 -2.234375 -2.28125 -4.75l-0.59375 0l0 34.5625l-17.765625 0l0 -87.0zm29.40625 50.046875q5.03125 0 8.328125 -3.546875q3.296875 -3.546875 3.296875 -9.546875l0 -10.90625q0 -6.0 -3.296875 -9.546875q-3.296875 -3.546875 -8.328125 -3.546875q-5.046875 0 -8.34375 2.46875q-3.296875 2.453125 -3.296875 6.78125l0 18.59375q0 4.328125 3.296875 6.796875q3.296875 2.453125 8.34375 2.453125zm90.11618 12.953125q-4.796875 0 -7.984375 -3.0q-3.171875 -3.0 -4.015625 -8.046875l-0.71875 0q-1.4375 6.125 -6.359375 9.3125q-4.921875 3.171875 -12.125 3.171875q-9.484375 0 -14.53125 -5.03125q-5.03125 -5.046875 -5.03125 -13.328125q0 -9.953125 7.25 -14.8125q7.265625 -4.859375 19.75 -4.859375l9.96875 0l0 -3.96875q0 -4.5625 -2.40625 -7.25q-2.40625 -2.703125 -8.046875 -2.703125q-5.28125 0 -8.40625 2.28125q-3.109375 2.28125 -5.140625 5.15625l-10.5625 -9.359375q3.828125 -5.640625 9.640625 -8.8125q5.828125 -3.1875 15.796875 -3.1875q13.4375 0 20.15625 5.875q6.71875 5.875 6.71875 17.15625l0 27.609375l5.890625 0l0 13.796875l-9.84375 0zm-24.609375 -10.921875q4.453125 0 7.625 -1.921875q3.1875 -1.921875 3.1875 -6.234375l0 -7.4375l-8.640625 0q-10.453125 0 -10.453125 7.078125l0 1.796875q0 3.484375 2.15625 5.109375q2.171875 1.609375 6.125 1.609375zm63.967438 10.921875q-9.125 0 -13.390625 -4.4375q-4.25 -4.4375 -4.25 -12.84375l0 -71.515625l17.765625 0l0 75.0l7.90625 0l0 13.796875l-8.03125 0zm29.516205 -91.203125q4.921875 0 8.28125 3.125q3.359375 3.125 3.359375 9.0l0 24.234375q0 5.28125 3.296875 7.984375q3.296875 2.703125 8.34375 2.703125l0 13.5625q-5.046875 0 -8.34375 2.703125q-3.296875 2.6875 -3.296875 7.96875l0 24.359375q0 5.875 -3.359375 9.0q-3.359375 3.125 -8.28125 3.125l-13.078125 0l0 -12.484375l8.28125 0l0 -25.921875q0 -2.875 1.015625 -5.453125q1.015625 -2.578125 2.703125 -4.609375q1.6875 -2.046875 3.953125 -3.421875q2.28125 -1.390625 4.8125 -1.875l0 -0.484375q-2.53125 -0.46875 -4.8125 -1.84375q-2.265625 -1.390625 -3.953125 -3.421875q-1.6875 -2.046875 -2.703125 -4.625q-1.015625 -2.578125 -1.015625 -5.46875l0 -25.671875l-8.28125 0l0 -12.484375l13.078125 0z" fill-rule="nonzero"/></g></svg>
